<mxfile host="app.diagrams.net" agent="Mozilla/5.0 (Windows NT 10.0; Win64; x64) AppleWebKit/537.36 (KHTML, like Gecko) Chrome/140.0.0.0 Safari/537.36 Edg/140.0.0.0" version="28.2.0">
  <diagram name="Page-1" id="edf60f1a-56cd-e834-aa8a-f176f3a09ee4">
    <mxGraphModel dx="1356" dy="741" grid="1" gridSize="10" guides="1" tooltips="1" connect="1" arrows="1" fold="1" page="1" pageScale="1" pageWidth="1100" pageHeight="850" background="none" math="0" shadow="0">
      <root>
        <mxCell id="0" />
        <mxCell id="1" parent="0" />
        <mxCell id="9QFhb09SuCYy5BF9ClsA-1" value="COSC1100 - Fall 2025&lt;div&gt;Week 2 Demo&lt;/div&gt;&lt;div&gt;Flowcharts&lt;/div&gt;&lt;div&gt;Gramma&#39;s Cookies&lt;br&gt;&lt;br&gt;Clint MacDonald&lt;br&gt;Sept. 9, 2025&lt;/div&gt;" style="rounded=0;whiteSpace=wrap;html=1;" vertex="1" parent="1">
          <mxGeometry x="20" y="10" width="190" height="120" as="geometry" />
        </mxCell>
        <mxCell id="9QFhb09SuCYy5BF9ClsA-4" value="" style="edgeStyle=orthogonalEdgeStyle;rounded=0;orthogonalLoop=1;jettySize=auto;html=1;" edge="1" parent="1" source="9QFhb09SuCYy5BF9ClsA-2" target="9QFhb09SuCYy5BF9ClsA-3">
          <mxGeometry relative="1" as="geometry" />
        </mxCell>
        <mxCell id="9QFhb09SuCYy5BF9ClsA-2" value="START" style="strokeWidth=2;html=1;shape=mxgraph.flowchart.start_1;whiteSpace=wrap;fillColor=#d5e8d4;strokeColor=#82b366;" vertex="1" parent="1">
          <mxGeometry x="50" y="160" width="100" height="60" as="geometry" />
        </mxCell>
        <mxCell id="9QFhb09SuCYy5BF9ClsA-7" value="" style="edgeStyle=orthogonalEdgeStyle;rounded=0;orthogonalLoop=1;jettySize=auto;html=1;" edge="1" parent="1" source="9QFhb09SuCYy5BF9ClsA-3" target="9QFhb09SuCYy5BF9ClsA-5">
          <mxGeometry relative="1" as="geometry" />
        </mxCell>
        <mxCell id="9QFhb09SuCYy5BF9ClsA-3" value="Find Recipies" style="rounded=1;whiteSpace=wrap;html=1;absoluteArcSize=1;arcSize=14;strokeWidth=2;" vertex="1" parent="1">
          <mxGeometry x="50" y="250" width="100" height="60" as="geometry" />
        </mxCell>
        <mxCell id="9QFhb09SuCYy5BF9ClsA-8" value="" style="edgeStyle=orthogonalEdgeStyle;rounded=0;orthogonalLoop=1;jettySize=auto;html=1;" edge="1" parent="1" source="9QFhb09SuCYy5BF9ClsA-5" target="9QFhb09SuCYy5BF9ClsA-6">
          <mxGeometry relative="1" as="geometry" />
        </mxCell>
        <mxCell id="9QFhb09SuCYy5BF9ClsA-5" value="Pick One Recipe" style="rounded=1;whiteSpace=wrap;html=1;absoluteArcSize=1;arcSize=14;strokeWidth=2;" vertex="1" parent="1">
          <mxGeometry x="200" y="250" width="100" height="60" as="geometry" />
        </mxCell>
        <mxCell id="9QFhb09SuCYy5BF9ClsA-6" value="Like this recipe?" style="strokeWidth=2;html=1;shape=mxgraph.flowchart.decision;whiteSpace=wrap;" vertex="1" parent="1">
          <mxGeometry x="200" y="350" width="100" height="90" as="geometry" />
        </mxCell>
        <mxCell id="9QFhb09SuCYy5BF9ClsA-9" value="NO" style="edgeStyle=orthogonalEdgeStyle;rounded=0;orthogonalLoop=1;jettySize=auto;html=1;exitX=0;exitY=0.5;exitDx=0;exitDy=0;exitPerimeter=0;entryX=0;entryY=1;entryDx=0;entryDy=0;" edge="1" parent="1" source="9QFhb09SuCYy5BF9ClsA-6" target="9QFhb09SuCYy5BF9ClsA-5">
          <mxGeometry relative="1" as="geometry">
            <mxPoint x="330" y="370" as="sourcePoint" />
            <mxPoint x="330" y="410" as="targetPoint" />
          </mxGeometry>
        </mxCell>
        <mxCell id="9QFhb09SuCYy5BF9ClsA-10" value="YES" style="edgeStyle=orthogonalEdgeStyle;rounded=0;orthogonalLoop=1;jettySize=auto;html=1;exitX=1;exitY=0.5;exitDx=0;exitDy=0;exitPerimeter=0;entryX=0;entryY=0.5;entryDx=0;entryDy=0;entryPerimeter=0;" edge="1" parent="1" source="9QFhb09SuCYy5BF9ClsA-6" target="9QFhb09SuCYy5BF9ClsA-11">
          <mxGeometry relative="1" as="geometry">
            <mxPoint x="200" y="340" as="sourcePoint" />
            <mxPoint x="360" y="395" as="targetPoint" />
          </mxGeometry>
        </mxCell>
        <mxCell id="9QFhb09SuCYy5BF9ClsA-14" value="NO" style="edgeStyle=orthogonalEdgeStyle;rounded=0;orthogonalLoop=1;jettySize=auto;html=1;" edge="1" parent="1" source="9QFhb09SuCYy5BF9ClsA-11" target="9QFhb09SuCYy5BF9ClsA-13">
          <mxGeometry relative="1" as="geometry" />
        </mxCell>
        <mxCell id="9QFhb09SuCYy5BF9ClsA-11" value="Have&lt;br&gt;Ingredients?" style="strokeWidth=2;html=1;shape=mxgraph.flowchart.decision;whiteSpace=wrap;" vertex="1" parent="1">
          <mxGeometry x="370" y="350" width="100" height="90" as="geometry" />
        </mxCell>
        <mxCell id="9QFhb09SuCYy5BF9ClsA-16" value="NO" style="edgeStyle=orthogonalEdgeStyle;rounded=0;orthogonalLoop=1;jettySize=auto;html=1;" edge="1" parent="1" source="9QFhb09SuCYy5BF9ClsA-13" target="9QFhb09SuCYy5BF9ClsA-15">
          <mxGeometry relative="1" as="geometry" />
        </mxCell>
        <mxCell id="9QFhb09SuCYy5BF9ClsA-13" value="Still Make Cookies?" style="strokeWidth=2;html=1;shape=mxgraph.flowchart.decision;whiteSpace=wrap;" vertex="1" parent="1">
          <mxGeometry x="370" y="210" width="100" height="90" as="geometry" />
        </mxCell>
        <mxCell id="9QFhb09SuCYy5BF9ClsA-15" value="GIVE UP" style="strokeWidth=2;html=1;shape=mxgraph.flowchart.start_1;whiteSpace=wrap;fillColor=#f8cecc;strokeColor=#b85450;" vertex="1" parent="1">
          <mxGeometry x="370" y="110" width="100" height="60" as="geometry" />
        </mxCell>
        <mxCell id="9QFhb09SuCYy5BF9ClsA-17" value="Go To The Store&lt;br&gt;and Buy missing ingredients" style="rounded=1;whiteSpace=wrap;html=1;absoluteArcSize=1;arcSize=14;strokeWidth=2;" vertex="1" parent="1">
          <mxGeometry x="550" y="225" width="100" height="60" as="geometry" />
        </mxCell>
        <mxCell id="9QFhb09SuCYy5BF9ClsA-18" value="YES" style="endArrow=classic;html=1;rounded=0;exitX=1;exitY=0.5;exitDx=0;exitDy=0;exitPerimeter=0;entryX=0;entryY=0.5;entryDx=0;entryDy=0;" edge="1" parent="1" source="9QFhb09SuCYy5BF9ClsA-13" target="9QFhb09SuCYy5BF9ClsA-17">
          <mxGeometry width="50" height="50" relative="1" as="geometry">
            <mxPoint x="490" y="390" as="sourcePoint" />
            <mxPoint x="540" y="340" as="targetPoint" />
          </mxGeometry>
        </mxCell>
        <mxCell id="9QFhb09SuCYy5BF9ClsA-23" value="" style="edgeStyle=orthogonalEdgeStyle;rounded=0;orthogonalLoop=1;jettySize=auto;html=1;" edge="1" parent="1" source="9QFhb09SuCYy5BF9ClsA-19" target="9QFhb09SuCYy5BF9ClsA-22">
          <mxGeometry relative="1" as="geometry" />
        </mxCell>
        <mxCell id="9QFhb09SuCYy5BF9ClsA-19" value="Wash Hands&lt;br&gt;Pre-Heat Oven" style="rounded=1;whiteSpace=wrap;html=1;absoluteArcSize=1;arcSize=14;strokeWidth=2;" vertex="1" parent="1">
          <mxGeometry x="550" y="365" width="100" height="60" as="geometry" />
        </mxCell>
        <mxCell id="9QFhb09SuCYy5BF9ClsA-20" value="" style="edgeStyle=orthogonalEdgeStyle;rounded=0;orthogonalLoop=1;jettySize=auto;html=1;exitX=0.5;exitY=1;exitDx=0;exitDy=0;entryX=0.5;entryY=0;entryDx=0;entryDy=0;" edge="1" parent="1" source="9QFhb09SuCYy5BF9ClsA-17" target="9QFhb09SuCYy5BF9ClsA-19">
          <mxGeometry relative="1" as="geometry">
            <mxPoint x="310" y="330" as="sourcePoint" />
            <mxPoint x="310" y="370" as="targetPoint" />
          </mxGeometry>
        </mxCell>
        <mxCell id="9QFhb09SuCYy5BF9ClsA-21" value="YES" style="endArrow=classic;html=1;rounded=0;exitX=1;exitY=0.5;exitDx=0;exitDy=0;exitPerimeter=0;entryX=0;entryY=0.5;entryDx=0;entryDy=0;" edge="1" parent="1" source="9QFhb09SuCYy5BF9ClsA-11" target="9QFhb09SuCYy5BF9ClsA-19">
          <mxGeometry width="50" height="50" relative="1" as="geometry">
            <mxPoint x="490" y="320" as="sourcePoint" />
            <mxPoint x="570" y="320" as="targetPoint" />
          </mxGeometry>
        </mxCell>
        <mxCell id="9QFhb09SuCYy5BF9ClsA-25" value="" style="edgeStyle=orthogonalEdgeStyle;rounded=0;orthogonalLoop=1;jettySize=auto;html=1;" edge="1" parent="1" source="9QFhb09SuCYy5BF9ClsA-22" target="9QFhb09SuCYy5BF9ClsA-24">
          <mxGeometry relative="1" as="geometry" />
        </mxCell>
        <mxCell id="9QFhb09SuCYy5BF9ClsA-22" value="Get out bowls and tools and ingredients" style="rounded=1;whiteSpace=wrap;html=1;absoluteArcSize=1;arcSize=14;strokeWidth=2;" vertex="1" parent="1">
          <mxGeometry x="700" y="365" width="100" height="60" as="geometry" />
        </mxCell>
        <mxCell id="9QFhb09SuCYy5BF9ClsA-27" value="" style="edgeStyle=orthogonalEdgeStyle;rounded=0;orthogonalLoop=1;jettySize=auto;html=1;" edge="1" parent="1" source="9QFhb09SuCYy5BF9ClsA-24" target="9QFhb09SuCYy5BF9ClsA-26">
          <mxGeometry relative="1" as="geometry" />
        </mxCell>
        <mxCell id="9QFhb09SuCYy5BF9ClsA-24" value="Mix the Cookie Dough" style="rounded=1;whiteSpace=wrap;html=1;absoluteArcSize=1;arcSize=14;strokeWidth=2;" vertex="1" parent="1">
          <mxGeometry x="840" y="365" width="100" height="60" as="geometry" />
        </mxCell>
        <mxCell id="9QFhb09SuCYy5BF9ClsA-29" value="" style="edgeStyle=orthogonalEdgeStyle;rounded=0;orthogonalLoop=1;jettySize=auto;html=1;" edge="1" parent="1" source="9QFhb09SuCYy5BF9ClsA-26" target="9QFhb09SuCYy5BF9ClsA-28">
          <mxGeometry relative="1" as="geometry" />
        </mxCell>
        <mxCell id="9QFhb09SuCYy5BF9ClsA-26" value="Prepare cookie sheet" style="rounded=1;whiteSpace=wrap;html=1;absoluteArcSize=1;arcSize=14;strokeWidth=2;" vertex="1" parent="1">
          <mxGeometry x="980" y="365" width="100" height="60" as="geometry" />
        </mxCell>
        <mxCell id="9QFhb09SuCYy5BF9ClsA-31" value="" style="edgeStyle=orthogonalEdgeStyle;rounded=0;orthogonalLoop=1;jettySize=auto;html=1;" edge="1" parent="1" source="9QFhb09SuCYy5BF9ClsA-28" target="9QFhb09SuCYy5BF9ClsA-30">
          <mxGeometry relative="1" as="geometry" />
        </mxCell>
        <mxCell id="9QFhb09SuCYy5BF9ClsA-28" value="Make cookie Balls&lt;br&gt;and place on pan" style="rounded=1;whiteSpace=wrap;html=1;absoluteArcSize=1;arcSize=14;strokeWidth=2;" vertex="1" parent="1">
          <mxGeometry x="980" y="470" width="100" height="60" as="geometry" />
        </mxCell>
        <mxCell id="9QFhb09SuCYy5BF9ClsA-33" value="NO" style="edgeStyle=orthogonalEdgeStyle;rounded=0;orthogonalLoop=1;jettySize=auto;html=1;" edge="1" parent="1" source="9QFhb09SuCYy5BF9ClsA-30" target="9QFhb09SuCYy5BF9ClsA-32">
          <mxGeometry relative="1" as="geometry" />
        </mxCell>
        <mxCell id="9QFhb09SuCYy5BF9ClsA-36" value="" style="edgeStyle=orthogonalEdgeStyle;rounded=0;orthogonalLoop=1;jettySize=auto;html=1;" edge="1" parent="1" source="9QFhb09SuCYy5BF9ClsA-30" target="9QFhb09SuCYy5BF9ClsA-35">
          <mxGeometry relative="1" as="geometry" />
        </mxCell>
        <mxCell id="9QFhb09SuCYy5BF9ClsA-30" value="Oven&lt;br&gt;Correct Temp?" style="rhombus;whiteSpace=wrap;html=1;" vertex="1" parent="1">
          <mxGeometry x="860" y="460" width="80" height="80" as="geometry" />
        </mxCell>
        <mxCell id="9QFhb09SuCYy5BF9ClsA-32" value="Wait until Oven is correct temperature" style="rounded=1;whiteSpace=wrap;html=1;absoluteArcSize=1;arcSize=14;strokeWidth=2;" vertex="1" parent="1">
          <mxGeometry x="850" y="570" width="100" height="60" as="geometry" />
        </mxCell>
        <mxCell id="9QFhb09SuCYy5BF9ClsA-34" value="" style="edgeStyle=orthogonalEdgeStyle;rounded=0;orthogonalLoop=1;jettySize=auto;html=1;exitX=1;exitY=0;exitDx=0;exitDy=0;entryX=1;entryY=1;entryDx=0;entryDy=0;" edge="1" parent="1" source="9QFhb09SuCYy5BF9ClsA-32" target="9QFhb09SuCYy5BF9ClsA-30">
          <mxGeometry relative="1" as="geometry">
            <mxPoint x="1010" y="530" as="sourcePoint" />
            <mxPoint x="970" y="530" as="targetPoint" />
          </mxGeometry>
        </mxCell>
        <mxCell id="9QFhb09SuCYy5BF9ClsA-38" value="" style="edgeStyle=orthogonalEdgeStyle;rounded=0;orthogonalLoop=1;jettySize=auto;html=1;" edge="1" parent="1" source="9QFhb09SuCYy5BF9ClsA-35" target="9QFhb09SuCYy5BF9ClsA-37">
          <mxGeometry relative="1" as="geometry" />
        </mxCell>
        <mxCell id="9QFhb09SuCYy5BF9ClsA-35" value="Put cookie sheet in oven" style="rounded=1;whiteSpace=wrap;html=1;absoluteArcSize=1;arcSize=14;strokeWidth=2;" vertex="1" parent="1">
          <mxGeometry x="710" y="470" width="100" height="60" as="geometry" />
        </mxCell>
        <mxCell id="9QFhb09SuCYy5BF9ClsA-40" value="" style="edgeStyle=orthogonalEdgeStyle;rounded=0;orthogonalLoop=1;jettySize=auto;html=1;" edge="1" parent="1" source="9QFhb09SuCYy5BF9ClsA-37" target="9QFhb09SuCYy5BF9ClsA-39">
          <mxGeometry relative="1" as="geometry" />
        </mxCell>
        <mxCell id="9QFhb09SuCYy5BF9ClsA-37" value="Set Timer" style="rounded=1;whiteSpace=wrap;html=1;absoluteArcSize=1;arcSize=14;strokeWidth=2;" vertex="1" parent="1">
          <mxGeometry x="570" y="470" width="100" height="60" as="geometry" />
        </mxCell>
        <mxCell id="9QFhb09SuCYy5BF9ClsA-42" value="" style="edgeStyle=orthogonalEdgeStyle;rounded=0;orthogonalLoop=1;jettySize=auto;html=1;" edge="1" parent="1" source="9QFhb09SuCYy5BF9ClsA-39" target="9QFhb09SuCYy5BF9ClsA-41">
          <mxGeometry relative="1" as="geometry" />
        </mxCell>
        <mxCell id="9QFhb09SuCYy5BF9ClsA-39" value="Clean up&lt;br&gt;OR&lt;br&gt;wait" style="rounded=1;whiteSpace=wrap;html=1;absoluteArcSize=1;arcSize=14;strokeWidth=2;" vertex="1" parent="1">
          <mxGeometry x="430" y="470" width="100" height="60" as="geometry" />
        </mxCell>
        <mxCell id="9QFhb09SuCYy5BF9ClsA-41" value="Has Timer Expired?" style="rhombus;whiteSpace=wrap;html=1;" vertex="1" parent="1">
          <mxGeometry x="300" y="460" width="80" height="80" as="geometry" />
        </mxCell>
        <mxCell id="9QFhb09SuCYy5BF9ClsA-43" value="NO" style="edgeStyle=orthogonalEdgeStyle;rounded=0;orthogonalLoop=1;jettySize=auto;html=1;exitX=0.5;exitY=1;exitDx=0;exitDy=0;entryX=0.463;entryY=1.028;entryDx=0;entryDy=0;entryPerimeter=0;" edge="1" parent="1" source="9QFhb09SuCYy5BF9ClsA-41" target="9QFhb09SuCYy5BF9ClsA-39">
          <mxGeometry relative="1" as="geometry">
            <mxPoint x="340" y="600" as="sourcePoint" />
            <mxPoint x="390" y="560" as="targetPoint" />
            <Array as="points">
              <mxPoint x="340" y="560" />
              <mxPoint x="476" y="560" />
            </Array>
          </mxGeometry>
        </mxCell>
        <mxCell id="9QFhb09SuCYy5BF9ClsA-44" value="YES" style="edgeStyle=orthogonalEdgeStyle;rounded=0;orthogonalLoop=1;jettySize=auto;html=1;exitX=0;exitY=0.5;exitDx=0;exitDy=0;entryX=1;entryY=0.5;entryDx=0;entryDy=0;" edge="1" parent="1" source="9QFhb09SuCYy5BF9ClsA-41" target="9QFhb09SuCYy5BF9ClsA-45">
          <mxGeometry relative="1" as="geometry">
            <mxPoint x="310" y="560" as="sourcePoint" />
            <mxPoint x="230" y="500" as="targetPoint" />
          </mxGeometry>
        </mxCell>
        <mxCell id="9QFhb09SuCYy5BF9ClsA-45" value="Are&lt;br&gt;Cookies Done?" style="rhombus;whiteSpace=wrap;html=1;" vertex="1" parent="1">
          <mxGeometry x="140" y="460" width="80" height="80" as="geometry" />
        </mxCell>
        <mxCell id="9QFhb09SuCYy5BF9ClsA-46" value="NO" style="edgeStyle=orthogonalEdgeStyle;rounded=0;orthogonalLoop=1;jettySize=auto;html=1;exitX=0.5;exitY=1;exitDx=0;exitDy=0;entryX=0.5;entryY=1;entryDx=0;entryDy=0;" edge="1" parent="1" source="9QFhb09SuCYy5BF9ClsA-45" target="9QFhb09SuCYy5BF9ClsA-37">
          <mxGeometry relative="1" as="geometry">
            <mxPoint x="180" y="550" as="sourcePoint" />
            <mxPoint x="620" y="540" as="targetPoint" />
            <Array as="points">
              <mxPoint x="180" y="580" />
              <mxPoint x="620" y="580" />
            </Array>
          </mxGeometry>
        </mxCell>
        <mxCell id="9QFhb09SuCYy5BF9ClsA-50" value="" style="edgeStyle=orthogonalEdgeStyle;rounded=0;orthogonalLoop=1;jettySize=auto;html=1;" edge="1" parent="1" source="9QFhb09SuCYy5BF9ClsA-47" target="9QFhb09SuCYy5BF9ClsA-49">
          <mxGeometry relative="1" as="geometry" />
        </mxCell>
        <mxCell id="9QFhb09SuCYy5BF9ClsA-47" value="Remove Cookies from Oven&lt;br&gt;AND turn oven off" style="rounded=1;whiteSpace=wrap;html=1;absoluteArcSize=1;arcSize=14;strokeWidth=2;" vertex="1" parent="1">
          <mxGeometry x="130" y="630" width="100" height="60" as="geometry" />
        </mxCell>
        <mxCell id="9QFhb09SuCYy5BF9ClsA-48" value="YES" style="edgeStyle=orthogonalEdgeStyle;rounded=0;orthogonalLoop=1;jettySize=auto;html=1;exitX=0;exitY=0.5;exitDx=0;exitDy=0;entryX=0;entryY=0.5;entryDx=0;entryDy=0;" edge="1" parent="1" source="9QFhb09SuCYy5BF9ClsA-45" target="9QFhb09SuCYy5BF9ClsA-47">
          <mxGeometry relative="1" as="geometry">
            <mxPoint x="320" y="510" as="sourcePoint" />
            <mxPoint x="240" y="510" as="targetPoint" />
            <Array as="points">
              <mxPoint x="100" y="500" />
              <mxPoint x="100" y="660" />
            </Array>
          </mxGeometry>
        </mxCell>
        <mxCell id="9QFhb09SuCYy5BF9ClsA-52" value="" style="edgeStyle=orthogonalEdgeStyle;rounded=0;orthogonalLoop=1;jettySize=auto;html=1;" edge="1" parent="1" source="9QFhb09SuCYy5BF9ClsA-49" target="9QFhb09SuCYy5BF9ClsA-51">
          <mxGeometry relative="1" as="geometry" />
        </mxCell>
        <mxCell id="9QFhb09SuCYy5BF9ClsA-49" value="Let cookies rest for 5 minutes" style="rounded=1;whiteSpace=wrap;html=1;absoluteArcSize=1;arcSize=14;strokeWidth=2;" vertex="1" parent="1">
          <mxGeometry x="270" y="630" width="100" height="60" as="geometry" />
        </mxCell>
        <mxCell id="9QFhb09SuCYy5BF9ClsA-51" value="YUM YUM" style="strokeWidth=2;html=1;shape=mxgraph.flowchart.start_1;whiteSpace=wrap;fillColor=#f8cecc;strokeColor=#b85450;" vertex="1" parent="1">
          <mxGeometry x="430" y="630" width="100" height="60" as="geometry" />
        </mxCell>
      </root>
    </mxGraphModel>
  </diagram>
</mxfile>
